Coordinates
version=1
nRows=16
nColumns=36
inDegrees=yes

Units are S.I. units (second, meters, Newtons, ...)
If the header above contains a line with 'inDegrees', this indicates whether rotational values are in degrees (yes) or radians (no).

endheader
time	pelvis_tilt	pelvis_list	pelvis_rotation	pelvis_tx	pelvis_ty	pelvis_tz	hip_flexion_r	hip_adduction_r	hip_rotation_r	knee_angle_r	knee_angle_r_beta	ankle_angle_r	subtalar_angle_r	mtp_angle_r	hip_flexion_l	hip_adduction_l	hip_rotation_l	knee_angle_l	knee_angle_l_beta	ankle_angle_l	subtalar_angle_l	mtp_angle_l	lumbar_extension	lumbar_bending	lumbar_rotation	arm_flex_r	arm_add_r	arm_rot_r	elbow_flex_r	pro_sup_r	arm_flex_l	arm_add_l	arm_rot_l	elbow_flex_l	pro_sup_l
      5.31666670	     -3.72059501	     -6.48217118	      7.13948596	      0.65724871	      0.95247638	     -0.09569335	     52.61516630	      4.16797448	      1.67326203	     15.61946473	      0.27261109	     -6.17646736	     -9.14661839	     -7.49999987	     31.57795426	     -1.07346839	     -8.81772486	     40.84258452	      0.71283757	     12.48097669	     -1.74017842	     -7.49999987	    -41.93151056	      2.99269500	      2.82576203	     50.64329501	     14.21844614	     70.96820165	    120.94389167	    102.13638386	     67.56181417	     10.81703804	     82.02331566	    128.82356451	     80.57829950
      5.33333330	     -3.68368662	     -6.84267503	      7.64603132	      0.66136244	      0.96419915	     -0.09402689	     51.51700142	      4.30227015	      2.13772859	     15.94648242	      0.27831862	     -5.75460148	     -9.46070369	     -7.49999987	     30.15963343	     -1.10669621	     -8.00497875	     38.37138026	      0.66970692	     10.51116029	     -2.18286650	     -7.49999987	    -40.66630857	      3.77471869	      2.68996916	     49.11649314	     13.90881799	     70.53756945	    120.80930753	    101.90396391	     65.92727367	     10.92623771	     80.98102875	    128.63304280	     80.50780592
      5.35000000	     -3.26082603	     -7.12653365	      7.93551315	      0.66105671	      0.97618877	     -0.09509517	     49.39674952	      4.48878364	      2.41501298	     15.00658492	      0.26191432	     -5.39757000	     -9.43254513	     -7.49999987	     28.16049158	     -1.16508759	     -7.72254410	     35.42991849	      0.61836873	      8.64967873	     -2.01996713	     -7.49999987	    -39.68827275	      4.32564943	      2.65717284	     47.55966927	     13.53930021	     70.58152490	    120.85200566	    101.73787787	     64.08252402	     11.01752767	     80.25291842	    128.30380352	     80.45595315
      5.36666670	     -2.89007420	     -7.18067849	      7.94658717	      0.65432313	      0.98312021	     -0.09304637	     47.99115224	      4.73726881	      2.81519638	     14.62556354	      0.25526424	     -5.29311545	     -9.40723285	     -7.49999987	     26.11200225	     -0.87673140	     -7.08758368	     32.08316461	      0.55995686	      7.54454070	     -1.34603123	     -7.49999987	    -38.71121833	      4.72252161	      2.51486659	     46.94916059	     13.52574284	     70.59592105	    120.53778072	    101.38575911	     62.27358340	     10.78920032	     79.03303667	    128.52542971	     80.59271970
      5.38333330	     -2.47185246	     -7.23200374	      7.77630763	      0.66016776	      0.99166241	     -0.09616259	     45.99244389	      5.11657367	      3.17359558	     13.40361533	      0.23393722	     -5.42248019	     -9.03144989	     -7.49999987	     23.37876463	     -0.52762037	     -6.32113223	     28.16341081	      0.49154425	      6.44166133	     -1.07126380	     -7.49999987	    -37.54674588	      5.05620552	      2.30641317	     46.16132809	     13.50547449	     70.17065223	    120.08894635	    101.01741385	     60.54667355	     10.89677654	     78.25544918	    128.09789045	     80.62123278
      5.40000000	     -1.92751813	     -7.74817899	      7.52489260	      0.66895256	      0.99587714	     -0.10178222	     44.00226499	      5.89028254	      3.24725455	     13.37106664	      0.23336914	     -5.45350868	    -10.09343034	     -7.49999987	     20.54520417	     -0.53443914	     -5.20551027	     24.60899215	      0.42950794	      5.00260318	     -1.63207940	     -7.49999987	    -36.58329462	      6.08807849	      2.36434136	     45.53130253	     13.34599147	     70.21442793	    119.68153113	    100.66458700	     58.64794367	     10.81250482	     77.23478715	    128.00691121	     80.54563822
      5.41666670	     -2.03818616	     -8.25168312	      7.35025514	      0.66793669	      0.99973641	     -0.10155759	     43.29403008	      6.55402900	      3.45216702	     13.80818665	      0.24099832	     -5.17982604	    -10.62917535	     -7.49999987	     19.32268865	     -0.69061940	     -4.38157114	     22.40282902	      0.39100313	      4.51695372	     -1.39361776	     -7.49999987	    -35.23117600	      7.01611515	      2.36533935	     44.54309369	     13.12486915	     70.83977601	    119.86559823	    100.57103031	     57.20509946	     11.20683371	     77.11774784	    127.98826565	     80.53886960
      5.43333330	     -2.29073506	     -8.72573752	      7.08979349	      0.66711555	      1.00523052	     -0.10141554	     42.86032163	      7.37880693	      3.99968714	     14.70867610	      0.25671483	     -5.00892755	    -11.53376055	     -7.49999987	     18.46138541	     -0.81251290	     -3.24498245	     20.58336859	      0.35924755	      2.93016089	     -2.49119816	     -7.49999987	    -33.84211445	      7.86386678	      2.47442701	     43.77574838	     12.83739222	     71.24752932	    120.20982172	    100.31230703	     56.02967980	     11.51111810	     76.31533248	    128.08371201	     80.53555725
      5.45000000	     -2.65839246	     -9.12636939	      6.98324094	      0.66292358	      1.00989671	     -0.09934731	     42.41088418	      7.96192255	      4.47636014	     14.70744579	      0.25669335	     -4.81349169	    -10.79676299	     -7.49999987	     18.21276947	     -0.94697669	     -2.12931044	     19.18242805	      0.33479653	      1.56165444	     -2.78120869	     -7.49999987	    -32.48159700	      8.45292306	      2.42372530	     43.31282396	     12.87134143	     71.47395413	    120.64384823	     99.83382655	     55.45430966	     11.99279338	     75.96789398	    128.11791672	     80.53783467
      5.46666670	     -2.80795994	     -9.39243181	      7.00625554	      0.66809357	      1.01499759	     -0.09661424	     41.69856204	      8.42155705	      4.98484385	     14.59516340	      0.25473366	     -4.99876463	     -9.98559676	     -7.49999987	     17.12258452	     -1.15603411	     -1.36985848	     16.97518358	      0.29627284	     -0.46634252	     -3.64602091	     -7.49999987	    -31.36880543	      8.81296691	      2.28907748	     42.70385375	     12.94627684	     71.49677550	    121.01710245	     99.45959292	     55.02300315	     12.10063063	     75.52670652	    128.08836588	     80.40321881
      5.48333330	     -2.94035418	     -9.40328338	      7.36733316	      0.66887504	      1.01720369	     -0.09708617	     40.74516733	      8.34410313	      5.51402345	     14.18006256	      0.24748878	     -5.01601195	     -9.76382398	     -7.49999987	     15.94593286	     -0.94846998	     -0.56513152	     14.62500128	      0.25525443	     -2.56725168	     -4.45263558	     -7.49999987	    -30.35920907	      9.01872594	      1.98227130	     42.18957035	     13.07706658	     71.56095595	    121.12418778	     99.08648617	     54.78983226	     12.12881137	     75.34524255	    128.08350715	     80.13288848
      5.50000000	     -2.79961318	     -9.42483925	      7.71921305	      0.66918423	      1.02118264	     -0.09785239	     39.71435392	      8.26286211	      5.75267233	     13.85814182	      0.24187020	     -5.39191163	     -9.32911309	     -7.49999987	     14.84714900	     -0.88076226	      0.01946146	     12.81862708	      0.22372725	     -4.16046981	     -4.53118908	     -7.49999987	    -29.60219735	      9.24974983	      1.71202056	     41.96359895	     13.20995804	     71.55749598	    121.19293645	     98.75088890	     54.84315902	     12.25003106	     75.00963349	    128.00756821	     79.80778811
      5.51666670	     -2.45699587	     -9.55580642	      7.72736168	      0.67493289	      1.01929970	     -0.10040010	     38.50489690	      8.58305711	      6.40943541	     14.57148309	      0.25432036	     -5.91165198	     -9.01720364	     -7.49999987	     13.54005897	     -0.97816186	      0.79584679	     11.20276887	      0.19552520	     -5.36544585	     -4.92989234	     -7.49999987	    -28.70010909	      9.54697379	      1.65486871	     41.51132116	     13.13619492	     71.45044792	    121.24937948	     96.26394918	     54.48646399	     12.40827962	     74.57877681	    127.91016787	     78.15993874
      5.53333330	     -2.23082818	     -9.46002038	      7.76673145	      0.67425293	      1.02159726	     -0.10012370	     37.45652074	      8.65181270	      6.88990492	     15.42069727	      0.26914194	     -5.99019514	     -8.36803948	     -7.49999987	     12.62157147	     -0.88514011	      1.01329444	     10.12028440	      0.17663228	     -6.63109252	     -5.15318180	     -7.49999987	    -27.88785330	      9.43628778	      1.53259531	     41.02951077	     13.01187447	     71.12927102	    121.19022041	     96.18302617	     54.14045494	     12.57955862	     74.25028242	    127.64912129	     77.95419298
      5.55000000	     -1.86237924	     -9.29587247	      7.62183521	      0.67918612	      1.02250722	     -0.09603449	     36.08713190	      8.80405939	      7.17014307	     15.52795688	      0.27101397	     -5.85847885	     -8.01470605	     -7.49999987	     11.51652923	     -0.91505367	      1.14438850	      9.00262987	      0.15712553	     -7.39861977	     -5.25970492	     -7.49999987	    -27.06253403	      9.25271762	      1.55501201	     40.47273918	     12.96645812	     70.61624045	    120.99833265	     96.00577640	     53.47468675	     12.42492735	     73.69431570	    127.58329569	     77.73357104
      5.56666670	     -1.47593605	     -9.13987978	      7.68171524	      0.67875145	      1.02221083	     -0.09608004	     35.21772646	      8.85801507	      7.18638175	     16.31360134	      0.28472606	     -5.06238763	     -7.00836350	     -7.49999987	     10.91441911	     -0.86816584	      1.30410238	      8.79931117	      0.15357695	     -7.57659399	     -5.97369427	     -7.49999987	    -26.40257843	      9.19598587	      1.44971192	     39.78322426	     12.62522004	     70.15255881	    120.87232919	     95.63283523	     52.97158980	     12.35510738	     73.32232115	    127.39891134	     77.07187313
